<?xml version="1.0" encoding="UTF-8" standalone="yes"?>
<!DOCTYPE svg PUBLIC "-//W3C//DTD SVG 1.1//EN" "http://www.w3.org/Graphics/SVG/1.1/DTD/svg11.dtd">

<svg width="99" height="96" viewBox="0 0 99 96" xmlns="http://www.w3.org/2000/svg" xmlns:xlink="http://www.w3.org/1999/xlink" version="1.1" baseProfile="full">
    <g transform="scale(1,-1) translate(0,-96)">
        <path d="M 5.221206 8.408726 Q 5.730991 5.969041 7.060073 4.967678 Q 8.389156 3.966314 10.865254 3.966314 Q 12.066891 3.966314 12.940808 4.257620 Q 13.814725 4.548926 14.379130 5.040504 Q 14.943535 5.532082 15.234840 6.151107 Q 15.526146 6.770132 15.526146 7.461983 Q 15.526146 8.845685 14.634022 9.519329 Q 13.741898 10.192974 12.394609 10.575313 Q 11.047320 10.957651 9.481552 11.230751 Q 7.915784 11.503850 6.568495 12.050048 Q 5.221206 12.596246 4.329082 13.615816 Q 3.436958 14.635386 3.436958 16.492460 Q 3.436958 18.859319 5.166586 20.370468 Q 6.896214 21.881616 10.064164 21.881616 Q 13.122874 21.881616 15.034568 20.516121 Q 16.946261 19.150625 17.346807 15.946262 L 15.125601 15.946262 Q 14.834295 18.131055 13.468799 19.023179 Q 12.103304 19.915303 10.027750 19.915303 Q 7.952197 19.915303 6.859801 19.023179 Q 5.767404 18.131055 5.767404 16.674526 Q 5.767404 15.400064 6.659528 14.726419 Q 7.551652 14.052775 8.898941 13.634023 Q 10.246230 13.215271 11.811998 12.887552 Q 13.377766 12.559833 14.725055 11.959015 Q 16.072344 11.358197 16.964468 10.338627 Q 17.856592 9.319057 17.856592 7.498396 Q 17.856592 6.151107 17.273980 5.113330 Q 16.691369 4.075554 15.671799 3.383703 Q 14.652229 2.691852 13.250320 2.345926 Q 11.848411 2.000000 10.173403 2.000000 Q 8.498395 2.000000 7.205726 2.491579 Q 5.913057 2.983157 5.002727 3.857074 Q 4.092396 4.730992 3.582611 5.896215 Q 3.072826 7.061437 3.000000 8.408726 Z M 38.102340 5.422843 L 43.054537 21.371831 L 45.275743 21.371831 L 39.158323 2.509785 L 36.827877 2.509785 L 32.713184 18.349534 L 32.640357 18.349534 L 28.452838 2.509785 L 25.831086 2.509785 L 20.077798 21.371831 L 22.262591 21.371831 L 27.141962 5.277190 L 31.511548 21.371831 L 33.951233 21.371831 Z M 60.787773 12.414180 Q 59.404071 11.831569 57.983955 11.649503 Q 56.563840 11.467436 55.143725 11.358197 Q 52.631213 11.176131 51.229304 10.229387 Q 49.827395 9.282644 49.827395 7.352743 Q 49.827395 6.478826 50.173321 5.841595 Q 50.519246 5.204363 51.083651 4.785611 Q 51.648056 4.366859 52.394527 4.166587 Q 53.140998 3.966314 53.905675 3.966314 Q 55.216551 3.966314 56.454600 4.294033 Q 57.692650 4.621752 58.657600 5.295396 Q 59.622550 5.969041 60.205162 7.006818 Q 60.787773 8.044594 60.787773 9.464710 Z M 57.110038 13.506577 Q 57.729063 13.579403 58.584773 13.725056 Q 59.440484 13.870709 59.986682 14.125601 Q 60.532881 14.380494 60.660327 14.981312 Q 60.787773 15.582130 60.787773 16.091915 Q 60.787773 17.766923 59.713583 18.841113 Q 58.639393 19.915303 56.090468 19.915303 Q 54.961659 19.915303 54.014915 19.715030 Q 53.068171 19.514757 52.358114 19.023179 Q 51.648056 18.531600 51.192891 17.712303 Q 50.737726 16.893006 50.592073 15.654956 L 48.370867 15.654956 Q 48.480106 17.329964 49.135544 18.513394 Q 49.790982 19.696823 50.828759 20.443294 Q 51.866535 21.189765 53.232031 21.535691 Q 54.597526 21.881616 56.126881 21.881616 Q 57.546997 21.881616 58.803253 21.572104 Q 60.059509 21.262591 60.988046 20.588947 Q 61.916583 19.915303 62.444574 18.786493 Q 62.972566 17.657683 62.972566 16.019088 L 62.972566 5.750562 Q 62.972566 4.476099 63.427731 4.130174 Q 63.882896 3.784248 65.266599 4.294033 L 65.266599 2.582612 Q 65.011706 2.509785 64.520128 2.364133 Q 64.028549 2.218480 63.555177 2.218480 Q 63.045392 2.218480 62.572021 2.327719 Q 62.025822 2.400546 61.698103 2.673645 Q 61.370384 2.946744 61.170112 3.329083 Q 60.969839 3.711422 60.897013 4.166587 Q 60.824186 4.621752 60.824186 5.131537 Q 59.440484 3.602182 57.656236 2.801091 Q 55.871989 2.000000 53.796436 2.000000 Q 52.558386 2.000000 51.411370 2.327719 Q 50.264354 2.655438 49.390437 3.347289 Q 48.516519 4.039141 48.006734 5.040504 Q 47.496949 6.041867 47.496949 7.425570 Q 47.496949 12.232114 54.087741 13.106031 Z M 70.983473 2.509785 L 68.798680 2.509785 L 68.798680 21.371831 L 70.983473 21.371831 L 70.983473 17.839749 L 71.056300 17.839749 Q 71.966630 20.097369 73.404952 20.989492 Q 74.843274 21.881616 77.210133 21.881616 L 77.210133 19.514757 Q 75.353059 19.551170 74.151423 18.932146 Q 72.949787 18.313121 72.239729 17.257138 Q 71.529672 16.201155 71.256573 14.762833 Q 70.983473 13.324510 70.983473 11.758742 Z M 93.159122 12.414180 Q 91.775420 11.831569 90.355304 11.649503 Q 88.935189 11.467436 87.515073 11.358197 Q 85.002561 11.176131 83.600653 10.229387 Q 82.198744 9.282644 82.198744 7.352743 Q 82.198744 6.478826 82.544669 5.841595 Q 82.890595 5.204363 83.455000 4.785611 Q 84.019405 4.366859 84.765876 4.166587 Q 85.512346 3.966314 86.277024 3.966314 Q 87.587900 3.966314 88.825949 4.294033 Q 90.063998 4.621752 91.028949 5.295396 Q 91.993899 5.969041 92.576510 7.006818 Q 93.159122 8.044594 93.159122 9.464710 Z M 89.481387 13.506577 Q 90.100412 13.579403 90.956122 13.725056 Q 91.811833 13.870709 92.358031 14.125601 Q 92.904229 14.380494 93.031675 14.981312 Q 93.159122 15.582130 93.159122 16.091915 Q 93.159122 17.766923 92.084932 18.841113 Q 91.010742 19.915303 88.461817 19.915303 Q 87.333007 19.915303 86.386264 19.715030 Q 85.439520 19.514757 84.729462 19.023179 Q 84.019405 18.531600 83.564239 17.712303 Q 83.109074 16.893006 82.963421 15.654956 L 80.742215 15.654956 Q 80.851455 17.329964 81.506893 18.513394 Q 82.162331 19.696823 83.200107 20.443294 Q 84.237884 21.189765 85.603379 21.535691 Q 86.968875 21.881616 88.498230 21.881616 Q 89.918346 21.881616 91.174601 21.572104 Q 92.430857 21.262591 93.359394 20.588947 Q 94.287931 19.915303 94.815923 18.786493 Q 95.343915 17.657683 95.343915 16.019088 L 95.343915 5.750562 Q 95.343915 4.476099 95.799080 4.130174 Q 96.254245 3.784248 97.637947 4.294033 L 97.637947 2.582612 Q 97.383055 2.509785 96.891476 2.364133 Q 96.399898 2.218480 95.926526 2.218480 Q 95.416741 2.218480 94.943369 2.327719 Q 94.397171 2.400546 94.069452 2.673645 Q 93.741733 2.946744 93.541461 3.329083 Q 93.341188 3.711422 93.268361 4.166587 Q 93.195535 4.621752 93.195535 5.131537 Q 91.811833 3.602182 90.027585 2.801091 Q 88.243338 2.000000 86.167784 2.000000 Q 84.929735 2.000000 83.782719 2.327719 Q 82.635702 2.655438 81.761785 3.347289 Q 80.887868 4.039141 80.378083 5.040504 Q 79.868298 6.041867 79.868298 7.425570 Q 79.868298 12.232114 86.459090 13.106031 Z" transform="scale(1.000000,1.000000) translate(-1.000000,0.000000)" fill="#1a5dc0" opacity="1.000000"></path>
        <path d="M 61.582426 12.914143 L 60.512508 11.962021 L 59.442586 11.009900 L 58.372664 10.057779 L 57.302745 9.105658 L 56.232827 8.153537 L 55.162905 7.201415 L 54.092983 6.249294 L 53.023065 5.297173 L 51.953146 4.345052 L 50.883225 3.392930 L 49.813303 2.440809 L 49.021453 2.440809 L 48.229603 2.440809 L 47.437754 2.440809 L 46.645904 2.440809 L 45.854054 2.440809 L 45.062205 2.440809 L 44.270355 2.440809 L 43.478505 2.440809 L 42.686656 2.440809 L 41.894806 2.440809 L 41.102957 2.440809 L 40.311107 2.440809 L 39.519257 2.440809 L 38.727408 2.440809 L 37.935558 2.440809 L 37.143708 2.440809 L 36.351859 2.440809 L 35.560009 2.440809 L 34.768159 2.440809 L 33.976310 2.440809 L 33.184460 2.440809 L 32.392611 2.440809 L 31.600761 2.440809 L 30.808911 2.440809 L 30.017062 2.440809 L 29.225212 2.440809 L 28.433362 2.440809 L 27.641513 2.440809 L 26.849663 2.440809 L 26.057813 2.440809 L 25.265964 2.440809 L 24.474114 2.440809 L 23.682265 2.440809 L 22.890415 2.440809 L 22.098565 2.440809 L 21.306716 2.440809 L 20.514866 2.440809 L 19.723016 2.440809 L 18.931167 2.440809 L 18.139317 2.440809 L 17.347467 2.440809 L 16.555618 2.440809 L 15.763768 2.440809 L 14.971919 2.440809 L 14.180069 2.440809 L 13.388219 2.440809 L 12.596370 2.440809 L 11.804520 2.440809 L 11.012670 2.440809 L 10.220821 2.440809 L 9.428971 2.440809 L 8.637121 2.440809 L 7.845272 2.440809 L 7.053422 2.440809 L 6.261572 2.440809 L 5.469723 2.440809 L 4.677873 2.440809 L 3.886024 2.440809 L 3.094174 2.440809 L 2.302324 2.440809 L 2.302324 3.392930 L 2.302324 4.345052 L 2.302324 5.297173 L 2.302324 6.249294 L 2.302324 7.201415 L 2.302324 8.153537 L 2.302324 9.105658 L 2.302324 10.057779 L 2.302324 11.009900 L 2.302324 11.962021 L 2.302324 12.914143 L 3.290326 12.914143 L 4.278328 12.914143 L 5.266329 12.914143 L 6.254331 12.914143 L 7.242333 12.914143 L 8.230334 12.914143 L 9.218336 12.914143 L 10.206338 12.914143 L 11.194340 12.914143 L 12.182341 12.914143 L 13.170343 12.914143 L 14.158345 12.914143 L 15.146346 12.914143 L 16.134348 12.914143 L 17.122350 12.914143 L 18.110351 12.914143 L 19.098353 12.914143 L 20.086355 12.914143 L 21.074357 12.914143 L 22.062358 12.914143 L 23.050360 12.914143 L 24.038362 12.914143 L 25.026363 12.914143 L 26.014365 12.914143 L 27.002367 12.914143 L 27.990368 12.914143 L 28.978370 12.914143 L 29.966372 12.914143 L 30.954373 12.914143 L 31.942375 12.914143 L 32.930377 12.914143 L 33.918379 12.914143 L 34.906380 12.914143 L 35.894382 12.914143 L 36.882384 12.914143 L 37.870385 12.914143 L 38.858387 12.914143 L 39.846389 12.914143 L 40.834390 12.914143 L 41.822392 12.914143 L 42.810394 12.914143 L 43.798396 12.914143 L 44.786397 12.914143 L 45.774399 12.914143 L 46.762401 12.914143 L 47.750402 12.914143 L 48.738404 12.914143 L 49.726406 12.914143 L 50.714407 12.914143 L 51.702409 12.914143 L 52.690411 12.914143 L 53.678413 12.914143 L 54.666414 12.914143 L 55.654416 12.914143 L 56.642418 12.914143 L 57.630419 12.914143 L 58.618421 12.914143 L 59.606423 12.914143 L 60.594424 12.914143 Z" transform="scale(1.000000,1.000000) translate(16.000000,25.000000)" fill="#1853aa" opacity="1.000000"></path>
        <path d="M 2.580338 14.183164 L 49.463139 14.183164 L 49.463139 2.462463 L 2.580338 2.462463 Z" transform="scale(1.000000,1.000000) translate(30.000000,77.000000)" fill="#1853aa" opacity="1.000000"></path>
        <path d="M 14.580338 66.183165 L 59.582421 12.914141 L 47.185123 2.440807 L 2.183041 55.709831 Z" transform="scale(1.000000,1.000000) translate(18.000000,25.000000)" fill="#217ad8" opacity="1.000000"></path>
    </g>
</svg>